<?xml version="1.0" encoding="UTF-8"?>
<svg id="katman_1" data-name="katman 1" xmlns="http://www.w3.org/2000/svg" xmlns:xlink="http://www.w3.org/1999/xlink" viewBox="0 0 2161.94 411.02">
  <defs>
    <style>
      .cls-1 {
        fill: url(#Adsız_degrade_16-2);
      }

      .cls-1, .cls-2, .cls-3 {
        stroke-width: 0px;
      }

      .cls-2 {
        fill: url(#Adsız_degrade_16);
      }

      .cls-4 {
        font-family: Poppins-Medium, Poppins;
        font-size: 255px;
        font-weight: 500;
      }

      .cls-4, .cls-3 {
        fill: #daeef5;
      }
    </style>
    <linearGradient id="Adsız_degrade_16" data-name="Adsız degrade 16" x1="82" y1="76.08" x2="345.95" y2="336.58" gradientUnits="userSpaceOnUse">
      <stop offset="0" stop-color="#d4ecf1"/>
      <stop offset="1" stop-color="#daeef5"/>
    </linearGradient>
    <linearGradient id="Adsız_degrade_16-2" data-name="Adsız degrade 16" x1="76.76" y1="81.52" x2="340.94" y2="342.25" xlink:href="#Adsız_degrade_16"/>
  </defs>
  <path class="cls-3" d="M420.54,134.4h30.95l3.9,20.02h.49c9.02-16.16,24.62-21.46,36.56-21.46,4.14,0,7.31.24,10.24.96v36.18c-3.66-.96-7.56-1.21-11.21-1.21-16.33,0-31.93,8.68-31.93,33.76v65.36h-39v-133.61Z"/>
  <path class="cls-3" d="M512.43,201.69c0-42.69,29.49-70.66,59.96-70.66,20.23,0,35.58,10.13,44.36,23.88l3.9-20.5h32.9v133.61h-32.9l-3.9-20.5c-8.77,13.99-24.13,23.87-44.36,23.87-30.47,0-59.96-27.98-59.96-69.7ZM615.28,201.21c0-20.74-13.4-35.45-31.44-35.45s-32.17,15.19-32.17,35.45,13.65,35.45,32.17,35.45,31.44-14.71,31.44-35.45Z"/>
  <path class="cls-3" d="M724.95,147.42h.24c7.56-9.41,20.72-16.4,36.07-16.4,29,0,47.53,17.12,47.53,47.75v89.23h-39v-78.38c0-16.4-7.07-23.88-21.45-23.88-13.16,0-23.4,8.2-23.4,22.43v79.83h-39V74.35h39v73.07Z"/>
  <path class="cls-3" d="M832.92,201.69c0-42.69,29.49-70.66,59.96-70.66,20.23,0,35.58,10.13,44.36,23.88l3.9-20.5h32.9v133.61h-32.9l-3.9-20.5c-8.77,13.99-24.13,23.87-44.36,23.87-30.47,0-59.96-27.98-59.96-69.7ZM935.77,201.21c0-20.74-13.4-35.45-31.44-35.45s-32.17,15.19-32.17,35.45,13.65,35.45,32.17,35.45,31.44-14.71,31.44-35.45Z"/>
  <path class="cls-3" d="M1052.26,134.4h36.07v31.83h-36.07v47.99c0,16.88,11.21,23.39,26.32,23.39,3.66,0,7.8-.48,12.19-1.21v32.32c-5.61,1.21-11.7,2.17-21.2,2.17-35.83,0-55.08-20.98-55.08-54.26v-50.41h-19.01v-31.83h19.25v-30.87h37.53v30.87Z"/>
  <g>
    <path class="cls-2" d="M352.27,226.75l-9.26-168.87c-1.78-32.42-30.88-56.6-63.45-52.74L54.55,31.85C19.47,36.01-3.29,70.53,6.99,103.98l81.56,265.31c9.46,30.77,43.04,47.42,73.61,36.49l105.48-37.7c14.5-5.18,18.1-23.83,6.55-33.94l-98.01-88.71c-3.11-2.81-4.02-7.29-2.26-11.08l5.12-10.99,9.87-19.69c2.97-5.93,7.5-10.95,13.12-14.55l23.86-15.28c3.59-2.3,8.27-1.99,11.53.75l81.13,68.28c13.5,11.81,34.69,1.67,33.72-16.13ZM251.97,138.41l-30.48,19.52-24.83,15.9-7.93,5.08c-5.22,3.34-9.43,8.01-12.19,13.52l-10.74,21.42-8.87,17.68-16.14,32.18c-2.69,5.36-7.88,5.44-9.4,5.33-1.52-.1-6.65-.88-8.57-6.56l-55.23-163.27c-1.61-4.76.82-8.19,1.94-9.45,1.12-1.25,4.26-4.06,9.24-3.06l169.85,34.17c5.95,1.2,7.35,6.16,7.63,7.66.28,1.49.82,6.62-4.28,9.88Z"/>
    <path class="cls-1" d="M199.6,207.6l-10.34,20.62-3.24,6.96c-1.79,3.84.52,8.32,4.71,9.14l29.11,5.72,95.31,52.99c1.47.82,2.99-.98,1.92-2.27l-68.66-82.69-10.86-28.86c-1.47-3.91-6.23-5.47-9.77-3.2l-20.61,13.2c-3.24,2.08-5.86,4.98-7.57,8.4Z"/>
  </g>
  <text class="cls-4" transform="translate(1101.75 271.38)"><tspan x="0" y="0">desktop</tspan></text>
</svg>